<mxfile host="app.diagrams.net" modified="2024-07-10T05:57:48.585Z" agent="Mozilla/5.0 (Windows NT 10.0; Win64; x64) AppleWebKit/537.36 (KHTML, like Gecko) Chrome/126.0.0.0 Safari/537.36" etag="7h1Q9E6VnnfiSwXYQNet" version="24.5.4" type="device">
  <diagram name="Radix 2 Core" id="ZaD_rivT6lmYNBGqYkyr">
    <mxGraphModel dx="1672" dy="1625" grid="1" gridSize="10" guides="1" tooltips="1" connect="1" arrows="1" fold="1" page="1" pageScale="1" pageWidth="850" pageHeight="1100" math="0" shadow="0">
      <root>
        <mxCell id="0" />
        <mxCell id="1" parent="0" />
        <mxCell id="WZTFNpZfV105tieNHAxb-71" value="" style="endArrow=none;html=1;rounded=0;exitX=0;exitY=0.5;exitDx=0;exitDy=0;" edge="1" parent="1" source="WZTFNpZfV105tieNHAxb-54">
          <mxGeometry width="50" height="50" relative="1" as="geometry">
            <mxPoint x="630" y="340" as="sourcePoint" />
            <mxPoint x="629.5" y="-120" as="targetPoint" />
          </mxGeometry>
        </mxCell>
        <mxCell id="WZTFNpZfV105tieNHAxb-70" value="" style="endArrow=none;html=1;rounded=0;" edge="1" parent="1" source="WZTFNpZfV105tieNHAxb-17">
          <mxGeometry width="50" height="50" relative="1" as="geometry">
            <mxPoint x="130" y="-70" as="sourcePoint" />
            <mxPoint x="180" y="-120" as="targetPoint" />
          </mxGeometry>
        </mxCell>
        <mxCell id="WZTFNpZfV105tieNHAxb-11" value="mult_0" style="whiteSpace=wrap;html=1;" vertex="1" parent="1">
          <mxGeometry x="320" y="40" width="120" height="80" as="geometry" />
        </mxCell>
        <mxCell id="WZTFNpZfV105tieNHAxb-44" style="edgeStyle=orthogonalEdgeStyle;rounded=0;orthogonalLoop=1;jettySize=auto;html=1;entryX=0.426;entryY=0.968;entryDx=0;entryDy=0;entryPerimeter=0;" edge="1" parent="1">
          <mxGeometry relative="1" as="geometry">
            <mxPoint x="440" y="510" as="sourcePoint" />
            <mxPoint x="151.92000000000007" y="351.1200000000001" as="targetPoint" />
            <Array as="points">
              <mxPoint x="480" y="510" />
              <mxPoint x="480" y="610" />
              <mxPoint x="60" y="610" />
              <mxPoint x="60" y="350" />
              <mxPoint x="150" y="350" />
              <mxPoint x="150" y="351" />
            </Array>
          </mxGeometry>
        </mxCell>
        <mxCell id="WZTFNpZfV105tieNHAxb-12" value="mult_1" style="whiteSpace=wrap;html=1;" vertex="1" parent="1">
          <mxGeometry x="320" y="480" width="120" height="80" as="geometry" />
        </mxCell>
        <mxCell id="WZTFNpZfV105tieNHAxb-38" style="edgeStyle=orthogonalEdgeStyle;rounded=0;orthogonalLoop=1;jettySize=auto;html=1;entryX=0.75;entryY=1;entryDx=0;entryDy=0;" edge="1" parent="1" source="WZTFNpZfV105tieNHAxb-13" target="WZTFNpZfV105tieNHAxb-14">
          <mxGeometry relative="1" as="geometry">
            <Array as="points">
              <mxPoint x="510" y="260" />
              <mxPoint x="510" y="-60" />
              <mxPoint x="90" y="-60" />
              <mxPoint x="90" y="110" />
            </Array>
          </mxGeometry>
        </mxCell>
        <mxCell id="WZTFNpZfV105tieNHAxb-43" style="edgeStyle=orthogonalEdgeStyle;rounded=0;orthogonalLoop=1;jettySize=auto;html=1;entryX=0.75;entryY=1;entryDx=0;entryDy=0;" edge="1" parent="1" source="WZTFNpZfV105tieNHAxb-13" target="WZTFNpZfV105tieNHAxb-17">
          <mxGeometry relative="1" as="geometry">
            <Array as="points">
              <mxPoint x="510" y="300" />
              <mxPoint x="510" y="450" />
              <mxPoint x="90" y="450" />
              <mxPoint x="90" y="550" />
            </Array>
          </mxGeometry>
        </mxCell>
        <mxCell id="WZTFNpZfV105tieNHAxb-13" value="butterfly" style="whiteSpace=wrap;html=1;" vertex="1" parent="1">
          <mxGeometry x="320" y="200" width="120" height="200" as="geometry" />
        </mxCell>
        <mxCell id="WZTFNpZfV105tieNHAxb-22" style="edgeStyle=orthogonalEdgeStyle;rounded=0;orthogonalLoop=1;jettySize=auto;html=1;entryX=0;entryY=0.25;entryDx=0;entryDy=0;" edge="1" parent="1" source="WZTFNpZfV105tieNHAxb-14" target="WZTFNpZfV105tieNHAxb-11">
          <mxGeometry relative="1" as="geometry" />
        </mxCell>
        <mxCell id="WZTFNpZfV105tieNHAxb-14" value="mux_0" style="shape=trapezoid;perimeter=trapezoidPerimeter;whiteSpace=wrap;html=1;fixedSize=1;rotation=90;" vertex="1" parent="1">
          <mxGeometry x="120" y="50" width="120" height="60" as="geometry" />
        </mxCell>
        <mxCell id="WZTFNpZfV105tieNHAxb-18" style="edgeStyle=orthogonalEdgeStyle;rounded=0;orthogonalLoop=1;jettySize=auto;html=1;entryX=0;entryY=0.25;entryDx=0;entryDy=0;" edge="1" parent="1" source="WZTFNpZfV105tieNHAxb-15" target="WZTFNpZfV105tieNHAxb-13">
          <mxGeometry relative="1" as="geometry" />
        </mxCell>
        <mxCell id="WZTFNpZfV105tieNHAxb-15" value="mux_1" style="shape=trapezoid;perimeter=trapezoidPerimeter;whiteSpace=wrap;html=1;fixedSize=1;rotation=90;" vertex="1" parent="1">
          <mxGeometry x="120" y="200" width="120" height="60" as="geometry" />
        </mxCell>
        <mxCell id="WZTFNpZfV105tieNHAxb-19" style="edgeStyle=orthogonalEdgeStyle;rounded=0;orthogonalLoop=1;jettySize=auto;html=1;entryX=0;entryY=0.75;entryDx=0;entryDy=0;" edge="1" parent="1" source="WZTFNpZfV105tieNHAxb-16" target="WZTFNpZfV105tieNHAxb-13">
          <mxGeometry relative="1" as="geometry" />
        </mxCell>
        <mxCell id="WZTFNpZfV105tieNHAxb-16" value="mux_2" style="shape=trapezoid;perimeter=trapezoidPerimeter;whiteSpace=wrap;html=1;fixedSize=1;rotation=90;" vertex="1" parent="1">
          <mxGeometry x="120" y="340" width="120" height="60" as="geometry" />
        </mxCell>
        <mxCell id="WZTFNpZfV105tieNHAxb-23" style="edgeStyle=orthogonalEdgeStyle;rounded=0;orthogonalLoop=1;jettySize=auto;html=1;entryX=0;entryY=0.25;entryDx=0;entryDy=0;" edge="1" parent="1" source="WZTFNpZfV105tieNHAxb-17" target="WZTFNpZfV105tieNHAxb-12">
          <mxGeometry relative="1" as="geometry" />
        </mxCell>
        <mxCell id="WZTFNpZfV105tieNHAxb-17" value="mux_3" style="shape=trapezoid;perimeter=trapezoidPerimeter;whiteSpace=wrap;html=1;fixedSize=1;rotation=90;" vertex="1" parent="1">
          <mxGeometry x="120" y="490" width="120" height="60" as="geometry" />
        </mxCell>
        <mxCell id="WZTFNpZfV105tieNHAxb-24" value="" style="edgeStyle=none;orthogonalLoop=1;jettySize=auto;html=1;rounded=0;" edge="1" parent="1">
          <mxGeometry width="100" relative="1" as="geometry">
            <mxPoint x="240" y="100" as="sourcePoint" />
            <mxPoint x="320" y="100" as="targetPoint" />
            <Array as="points" />
          </mxGeometry>
        </mxCell>
        <mxCell id="WZTFNpZfV105tieNHAxb-25" value="" style="edgeStyle=none;orthogonalLoop=1;jettySize=auto;html=1;rounded=0;" edge="1" parent="1">
          <mxGeometry width="100" relative="1" as="geometry">
            <mxPoint x="240" y="549" as="sourcePoint" />
            <mxPoint x="320" y="549" as="targetPoint" />
            <Array as="points" />
          </mxGeometry>
        </mxCell>
        <mxCell id="WZTFNpZfV105tieNHAxb-27" value="" style="endArrow=none;html=1;rounded=0;dashed=1;" edge="1" parent="1" source="WZTFNpZfV105tieNHAxb-31">
          <mxGeometry width="50" height="50" relative="1" as="geometry">
            <mxPoint x="240" y="550" as="sourcePoint" />
            <mxPoint x="240" as="targetPoint" />
          </mxGeometry>
        </mxCell>
        <mxCell id="WZTFNpZfV105tieNHAxb-30" value="" style="endArrow=none;html=1;rounded=0;dashed=1;" edge="1" parent="1" target="WZTFNpZfV105tieNHAxb-29">
          <mxGeometry width="50" height="50" relative="1" as="geometry">
            <mxPoint x="240" y="550" as="sourcePoint" />
            <mxPoint x="240" y="-80" as="targetPoint" />
          </mxGeometry>
        </mxCell>
        <mxCell id="WZTFNpZfV105tieNHAxb-29" value="" style="shape=waypoint;sketch=0;fillStyle=solid;size=6;pointerEvents=1;points=[];fillColor=none;resizable=0;rotatable=0;perimeter=centerPerimeter;snapToPoint=1;" vertex="1" parent="1">
          <mxGeometry x="230" y="540" width="20" height="20" as="geometry" />
        </mxCell>
        <mxCell id="WZTFNpZfV105tieNHAxb-32" value="" style="endArrow=none;html=1;rounded=0;dashed=1;" edge="1" parent="1" source="WZTFNpZfV105tieNHAxb-29" target="WZTFNpZfV105tieNHAxb-31">
          <mxGeometry width="50" height="50" relative="1" as="geometry">
            <mxPoint x="240" y="550" as="sourcePoint" />
            <mxPoint x="240" y="-80" as="targetPoint" />
          </mxGeometry>
        </mxCell>
        <mxCell id="WZTFNpZfV105tieNHAxb-31" value="" style="shape=waypoint;sketch=0;fillStyle=solid;size=6;pointerEvents=1;points=[];fillColor=none;resizable=0;rotatable=0;perimeter=centerPerimeter;snapToPoint=1;" vertex="1" parent="1">
          <mxGeometry x="230" y="90" width="20" height="20" as="geometry" />
        </mxCell>
        <mxCell id="WZTFNpZfV105tieNHAxb-37" value="" style="endArrow=classic;html=1;rounded=0;" edge="1" parent="1">
          <mxGeometry width="50" height="50" relative="1" as="geometry">
            <mxPoint y="50" as="sourcePoint" />
            <mxPoint x="150" y="50" as="targetPoint" />
          </mxGeometry>
        </mxCell>
        <mxCell id="WZTFNpZfV105tieNHAxb-39" value="" style="endArrow=classic;html=1;rounded=0;" edge="1" parent="1">
          <mxGeometry width="50" height="50" relative="1" as="geometry">
            <mxPoint y="260.05" as="sourcePoint" />
            <mxPoint x="150" y="260" as="targetPoint" />
          </mxGeometry>
        </mxCell>
        <mxCell id="WZTFNpZfV105tieNHAxb-40" value="" style="endArrow=classic;html=1;rounded=0;" edge="1" parent="1">
          <mxGeometry width="50" height="50" relative="1" as="geometry">
            <mxPoint y="399.31" as="sourcePoint" />
            <mxPoint x="150" y="399.31" as="targetPoint" />
          </mxGeometry>
        </mxCell>
        <mxCell id="WZTFNpZfV105tieNHAxb-41" value="" style="endArrow=classic;html=1;rounded=0;" edge="1" parent="1">
          <mxGeometry width="50" height="50" relative="1" as="geometry">
            <mxPoint y="490.04999999999995" as="sourcePoint" />
            <mxPoint x="150" y="490" as="targetPoint" />
          </mxGeometry>
        </mxCell>
        <mxCell id="WZTFNpZfV105tieNHAxb-42" style="edgeStyle=orthogonalEdgeStyle;rounded=0;orthogonalLoop=1;jettySize=auto;html=1;" edge="1" parent="1" source="WZTFNpZfV105tieNHAxb-11">
          <mxGeometry relative="1" as="geometry">
            <mxPoint x="150" y="210" as="targetPoint" />
            <Array as="points">
              <mxPoint x="480" y="80" />
              <mxPoint x="480" y="160" />
              <mxPoint x="90" y="160" />
              <mxPoint x="90" y="210" />
              <mxPoint x="150" y="210" />
            </Array>
          </mxGeometry>
        </mxCell>
        <mxCell id="WZTFNpZfV105tieNHAxb-45" value="" style="endArrow=none;html=1;rounded=0;" edge="1" parent="1">
          <mxGeometry width="50" height="50" relative="1" as="geometry">
            <mxPoint y="260" as="sourcePoint" />
            <mxPoint y="50" as="targetPoint" />
          </mxGeometry>
        </mxCell>
        <mxCell id="WZTFNpZfV105tieNHAxb-46" value="" style="endArrow=none;html=1;rounded=0;" edge="1" parent="1">
          <mxGeometry width="50" height="50" relative="1" as="geometry">
            <mxPoint y="490" as="sourcePoint" />
            <mxPoint y="400" as="targetPoint" />
          </mxGeometry>
        </mxCell>
        <mxCell id="WZTFNpZfV105tieNHAxb-48" value="" style="endArrow=none;html=1;rounded=0;" edge="1" parent="1">
          <mxGeometry width="50" height="50" relative="1" as="geometry">
            <mxPoint x="-120" y="400" as="sourcePoint" />
            <mxPoint y="400" as="targetPoint" />
          </mxGeometry>
        </mxCell>
        <mxCell id="WZTFNpZfV105tieNHAxb-49" value="" style="endArrow=none;html=1;rounded=0;" edge="1" parent="1">
          <mxGeometry width="50" height="50" relative="1" as="geometry">
            <mxPoint x="-120" y="120" as="sourcePoint" />
            <mxPoint y="120" as="targetPoint" />
          </mxGeometry>
        </mxCell>
        <mxCell id="WZTFNpZfV105tieNHAxb-50" value="" style="endArrow=none;html=1;rounded=0;" edge="1" parent="1">
          <mxGeometry width="50" height="50" relative="1" as="geometry">
            <mxPoint x="-120" as="sourcePoint" />
            <mxPoint x="240" as="targetPoint" />
          </mxGeometry>
        </mxCell>
        <mxCell id="WZTFNpZfV105tieNHAxb-51" value="&lt;font style=&quot;font-size: 8px;&quot;&gt;twiddle_factor_1&lt;/font&gt;" style="edgeLabel;html=1;align=center;verticalAlign=middle;resizable=0;points=[];" vertex="1" connectable="0" parent="WZTFNpZfV105tieNHAxb-50">
          <mxGeometry x="-0.8896" y="-1" relative="1" as="geometry">
            <mxPoint x="380" y="89" as="offset" />
          </mxGeometry>
        </mxCell>
        <mxCell id="WZTFNpZfV105tieNHAxb-59" value="twiddle factor" style="edgeLabel;html=1;align=center;verticalAlign=middle;resizable=0;points=[];" vertex="1" connectable="0" parent="WZTFNpZfV105tieNHAxb-50">
          <mxGeometry x="-0.8198" y="-3" relative="1" as="geometry">
            <mxPoint x="-72" y="-3" as="offset" />
          </mxGeometry>
        </mxCell>
        <mxCell id="WZTFNpZfV105tieNHAxb-52" value="&lt;font style=&quot;font-size: 8px;&quot;&gt;twiddle_factor_2&lt;/font&gt;" style="edgeLabel;html=1;align=center;verticalAlign=middle;resizable=0;points=[];" vertex="1" connectable="0" parent="1">
          <mxGeometry x="280" y="541" as="geometry" />
        </mxCell>
        <mxCell id="WZTFNpZfV105tieNHAxb-53" value="mux_4" style="shape=trapezoid;perimeter=trapezoidPerimeter;whiteSpace=wrap;html=1;fixedSize=1;rotation=90;" vertex="1" parent="1">
          <mxGeometry x="570" y="190" width="120" height="60" as="geometry" />
        </mxCell>
        <mxCell id="WZTFNpZfV105tieNHAxb-54" value="mux_5" style="shape=trapezoid;perimeter=trapezoidPerimeter;whiteSpace=wrap;html=1;fixedSize=1;rotation=90;" vertex="1" parent="1">
          <mxGeometry x="570" y="350" width="120" height="60" as="geometry" />
        </mxCell>
        <mxCell id="WZTFNpZfV105tieNHAxb-55" value="" style="endArrow=classic;html=1;rounded=0;entryX=0.25;entryY=1;entryDx=0;entryDy=0;" edge="1" parent="1" target="WZTFNpZfV105tieNHAxb-53">
          <mxGeometry width="50" height="50" relative="1" as="geometry">
            <mxPoint x="510" y="190" as="sourcePoint" />
            <mxPoint x="596.6399999999999" y="191.03999999999974" as="targetPoint" />
            <Array as="points">
              <mxPoint x="570" y="190" />
            </Array>
          </mxGeometry>
        </mxCell>
        <mxCell id="WZTFNpZfV105tieNHAxb-57" value="out NTT_1" style="edgeLabel;html=1;align=center;verticalAlign=middle;resizable=0;points=[];" vertex="1" connectable="0" parent="WZTFNpZfV105tieNHAxb-55">
          <mxGeometry x="-0.4255" y="3" relative="1" as="geometry">
            <mxPoint x="14" y="-7" as="offset" />
          </mxGeometry>
        </mxCell>
        <mxCell id="WZTFNpZfV105tieNHAxb-56" value="" style="endArrow=classic;html=1;rounded=0;entryX=0.25;entryY=1;entryDx=0;entryDy=0;" edge="1" parent="1">
          <mxGeometry width="50" height="50" relative="1" as="geometry">
            <mxPoint x="510" y="350" as="sourcePoint" />
            <mxPoint x="600" y="350" as="targetPoint" />
            <Array as="points">
              <mxPoint x="570" y="350" />
            </Array>
          </mxGeometry>
        </mxCell>
        <mxCell id="WZTFNpZfV105tieNHAxb-58" value="out NTT_2" style="edgeLabel;html=1;align=center;verticalAlign=middle;resizable=0;points=[];" vertex="1" connectable="0" parent="1">
          <mxGeometry x="549.9959259259261" y="340.0000000000002" as="geometry">
            <mxPoint x="-4" y="1" as="offset" />
          </mxGeometry>
        </mxCell>
        <mxCell id="WZTFNpZfV105tieNHAxb-60" value="input_1" style="edgeLabel;html=1;align=center;verticalAlign=middle;resizable=0;points=[];" vertex="1" connectable="0" parent="1">
          <mxGeometry x="-139.99714285714288" y="120" as="geometry" />
        </mxCell>
        <mxCell id="WZTFNpZfV105tieNHAxb-61" value="input_2" style="edgeLabel;html=1;align=center;verticalAlign=middle;resizable=0;points=[];" vertex="1" connectable="0" parent="1">
          <mxGeometry x="-129.99714285714288" y="400" as="geometry">
            <mxPoint x="-12" y="-4" as="offset" />
          </mxGeometry>
        </mxCell>
        <mxCell id="WZTFNpZfV105tieNHAxb-62" value="" style="endArrow=classic;html=1;rounded=0;entryX=0.75;entryY=1;entryDx=0;entryDy=0;" edge="1" parent="1" target="WZTFNpZfV105tieNHAxb-53">
          <mxGeometry width="50" height="50" relative="1" as="geometry">
            <mxPoint x="480" y="250" as="sourcePoint" />
            <mxPoint x="590" y="250" as="targetPoint" />
          </mxGeometry>
        </mxCell>
        <mxCell id="WZTFNpZfV105tieNHAxb-63" value="" style="endArrow=none;html=1;rounded=0;" edge="1" parent="1" source="WZTFNpZfV105tieNHAxb-64">
          <mxGeometry width="50" height="50" relative="1" as="geometry">
            <mxPoint x="480" y="250" as="sourcePoint" />
            <mxPoint x="480" y="160" as="targetPoint" />
          </mxGeometry>
        </mxCell>
        <mxCell id="WZTFNpZfV105tieNHAxb-65" value="" style="endArrow=none;html=1;rounded=0;" edge="1" parent="1" target="WZTFNpZfV105tieNHAxb-64">
          <mxGeometry width="50" height="50" relative="1" as="geometry">
            <mxPoint x="480" y="250" as="sourcePoint" />
            <mxPoint x="480" y="160" as="targetPoint" />
          </mxGeometry>
        </mxCell>
        <mxCell id="WZTFNpZfV105tieNHAxb-64" value="" style="shape=waypoint;sketch=0;fillStyle=solid;size=6;pointerEvents=1;points=[];fillColor=none;resizable=0;rotatable=0;perimeter=centerPerimeter;snapToPoint=1;" vertex="1" parent="1">
          <mxGeometry x="470" y="150" width="20" height="20" as="geometry" />
        </mxCell>
        <mxCell id="WZTFNpZfV105tieNHAxb-66" value="" style="endArrow=classic;html=1;rounded=0;entryX=0.75;entryY=1;entryDx=0;entryDy=0;" edge="1" parent="1">
          <mxGeometry width="50" height="50" relative="1" as="geometry">
            <mxPoint x="480" y="420" as="sourcePoint" />
            <mxPoint x="600" y="420" as="targetPoint" />
          </mxGeometry>
        </mxCell>
        <mxCell id="WZTFNpZfV105tieNHAxb-67" value="" style="endArrow=none;html=1;rounded=0;" edge="1" parent="1" source="WZTFNpZfV105tieNHAxb-68">
          <mxGeometry width="50" height="50" relative="1" as="geometry">
            <mxPoint x="480" y="520" as="sourcePoint" />
            <mxPoint x="479.5" y="420" as="targetPoint" />
          </mxGeometry>
        </mxCell>
        <mxCell id="WZTFNpZfV105tieNHAxb-69" value="" style="endArrow=none;html=1;rounded=0;" edge="1" parent="1" target="WZTFNpZfV105tieNHAxb-68">
          <mxGeometry width="50" height="50" relative="1" as="geometry">
            <mxPoint x="480" y="520" as="sourcePoint" />
            <mxPoint x="479.5" y="420" as="targetPoint" />
          </mxGeometry>
        </mxCell>
        <mxCell id="WZTFNpZfV105tieNHAxb-68" value="" style="shape=waypoint;sketch=0;fillStyle=solid;size=6;pointerEvents=1;points=[];fillColor=none;resizable=0;rotatable=0;perimeter=centerPerimeter;snapToPoint=1;" vertex="1" parent="1">
          <mxGeometry x="470" y="510" width="20" height="20" as="geometry" />
        </mxCell>
        <mxCell id="WZTFNpZfV105tieNHAxb-73" value="" style="endArrow=none;html=1;rounded=0;" edge="1" parent="1">
          <mxGeometry width="50" height="50" relative="1" as="geometry">
            <mxPoint x="-120" y="-120" as="sourcePoint" />
            <mxPoint x="630" y="-120" as="targetPoint" />
          </mxGeometry>
        </mxCell>
        <mxCell id="WZTFNpZfV105tieNHAxb-74" value="select" style="edgeLabel;html=1;align=center;verticalAlign=middle;resizable=0;points=[];" vertex="1" connectable="0" parent="WZTFNpZfV105tieNHAxb-73">
          <mxGeometry x="-0.952" y="-4" relative="1" as="geometry">
            <mxPoint x="-38" y="-4" as="offset" />
          </mxGeometry>
        </mxCell>
        <mxCell id="WZTFNpZfV105tieNHAxb-76" value="" style="endArrow=none;html=1;rounded=0;" edge="1" parent="1">
          <mxGeometry width="50" height="50" relative="1" as="geometry">
            <mxPoint x="660" y="220" as="sourcePoint" />
            <mxPoint x="800" y="220" as="targetPoint" />
          </mxGeometry>
        </mxCell>
        <mxCell id="WZTFNpZfV105tieNHAxb-78" value="output_1" style="edgeLabel;html=1;align=center;verticalAlign=middle;resizable=0;points=[];" vertex="1" connectable="0" parent="WZTFNpZfV105tieNHAxb-76">
          <mxGeometry x="0.6621" y="2" relative="1" as="geometry">
            <mxPoint x="53" y="2" as="offset" />
          </mxGeometry>
        </mxCell>
        <mxCell id="WZTFNpZfV105tieNHAxb-77" value="" style="endArrow=none;html=1;rounded=0;" edge="1" parent="1">
          <mxGeometry width="50" height="50" relative="1" as="geometry">
            <mxPoint x="660" y="379.65999999999997" as="sourcePoint" />
            <mxPoint x="800" y="379.65999999999997" as="targetPoint" />
          </mxGeometry>
        </mxCell>
        <mxCell id="WZTFNpZfV105tieNHAxb-79" value="output_2" style="edgeLabel;html=1;align=center;verticalAlign=middle;resizable=0;points=[];" vertex="1" connectable="0" parent="1">
          <mxGeometry x="830.0017241379308" y="380" as="geometry" />
        </mxCell>
        <mxCell id="WZTFNpZfV105tieNHAxb-80" value="out INTT_1" style="edgeLabel;html=1;align=center;verticalAlign=middle;resizable=0;points=[];" vertex="1" connectable="0" parent="1">
          <mxGeometry x="549.9911111111111" y="243" as="geometry">
            <mxPoint x="-4" y="-3" as="offset" />
          </mxGeometry>
        </mxCell>
        <mxCell id="WZTFNpZfV105tieNHAxb-81" value="out INTT_2" style="edgeLabel;html=1;align=center;verticalAlign=middle;resizable=0;points=[];" vertex="1" connectable="0" parent="1">
          <mxGeometry x="549.9911111111111" y="413" as="geometry">
            <mxPoint x="-4" y="-3" as="offset" />
          </mxGeometry>
        </mxCell>
      </root>
    </mxGraphModel>
  </diagram>
</mxfile>
